<svg xmlns="http://www.w3.org/2000/svg" width="41.502" height="41.502" viewBox="0 0 41.502 41.502">
  <g id="phone" transform="translate(0.5 0.5)">
    <path id="Path_87" data-name="Path 87" d="M20.251,0A20.251,20.251,0,1,1,0,20.251,20.251,20.251,0,0,1,20.251,0Z" fill="none" stroke="#fff" stroke-width="1"/>
    <path id="Path_86" data-name="Path 86" d="M26.575,22.945a1.58,1.58,0,0,0-.785-1.169l-5.08-2.925a1.593,1.593,0,0,0-1.919.253l-1,1a.734.734,0,0,1-.979.056,28.926,28.926,0,0,1-2.309-2.076,28.409,28.409,0,0,1-2.076-2.309.732.732,0,0,1,.054-.979l1-1a1.6,1.6,0,0,0,.253-1.92L10.813,6.8a1.59,1.59,0,0,0-2.5-.331L6.8,7.975c-1.051,1.051-1.068,2.977-.047,5.419a23.927,23.927,0,0,0,5.161,7.28,23.927,23.927,0,0,0,7.28,5.161,8.483,8.483,0,0,0,3.19.754,3.033,3.033,0,0,0,2.229-.8l1.509-1.507a1.58,1.58,0,0,0,.452-1.333Zm-6.2-3.517,5.08,2.925a.918.918,0,0,1,.282,1.35l-6.75-3.853.275-.273a.926.926,0,0,1,1.114-.149ZM9.555,6.675a.922.922,0,0,1,.68.456l2.923,5.08a.926.926,0,0,1-.147,1.114l-.253.253L8.885,6.848a.913.913,0,0,1,.67-.174ZM24.143,25.315c-.835.837-2.547.8-4.691-.095A23.279,23.279,0,0,1,12.387,20.2a23.3,23.3,0,0,1-5.019-7.068c-.9-2.143-.932-3.854-.1-4.69L8.393,7.327l3.878,6.739-.26.26a1.4,1.4,0,0,0-.1,1.87,29.389,29.389,0,0,0,2.123,2.361A29.466,29.466,0,0,0,16.4,20.681a1.4,1.4,0,0,0,1.868-.1l.236-.238L25.26,24.2l-1.117,1.117Z" transform="translate(4.126 4.125)" fill="#fff"/>
  </g>
</svg>
